<?xml version="1.0" encoding="UTF-8" standalone="no"?>
<!-- Created with Inkscape (http://www.inkscape.org/) -->

<svg
   version="1.1"
   id="svg1"
   width="1554.6667"
   height="396"
   viewBox="0 0 1554.6667 396"
   sodipodi:docname="0d339bec-3018-415e-bc65-ce8990781f9c.ai"
   xmlns:inkscape="http://www.inkscape.org/namespaces/inkscape"
   xmlns:sodipodi="http://sodipodi.sourceforge.net/DTD/sodipodi-0.dtd"
   xmlns="http://www.w3.org/2000/svg"
   xmlns:svg="http://www.w3.org/2000/svg">
  <defs
     id="defs1">
    <clipPath
       clipPathUnits="userSpaceOnUse"
       id="clipPath2">
      <path
         d="M 0,297 H 1166 V 0 H 0 Z"
         transform="translate(-82.123105,-126.7888)"
         id="path2" />
    </clipPath>
    <clipPath
       clipPathUnits="userSpaceOnUse"
       id="clipPath4">
      <path
         d="M 0,297 H 1166 V 0 H 0 Z"
         transform="translate(-60.690502,-75.571202)"
         id="path4" />
    </clipPath>
    <clipPath
       clipPathUnits="userSpaceOnUse"
       id="clipPath6">
      <path
         d="M 0,297 H 1166 V 0 H 0 Z"
         transform="translate(-435.62291,-190.7173)"
         id="path6" />
    </clipPath>
    <clipPath
       clipPathUnits="userSpaceOnUse"
       id="clipPath8">
      <path
         d="M 0,297 H 1166 V 0 H 0 Z"
         transform="translate(-486.18931,-209.632)"
         id="path8" />
    </clipPath>
    <clipPath
       clipPathUnits="userSpaceOnUse"
       id="clipPath10">
      <path
         d="M 0,297 H 1166 V 0 H 0 Z"
         transform="translate(-627.14492,-209.632)"
         id="path10" />
    </clipPath>
    <clipPath
       clipPathUnits="userSpaceOnUse"
       id="clipPath12">
      <path
         d="M 0,297 H 1166 V 0 H 0 Z"
         transform="translate(-883.5781,-157.2691)"
         id="path12" />
    </clipPath>
    <clipPath
       clipPathUnits="userSpaceOnUse"
       id="clipPath14">
      <path
         d="M 0,297 H 1166 V 0 H 0 Z"
         transform="translate(-903.0859,-155.87541)"
         id="path14" />
    </clipPath>
    <clipPath
       clipPathUnits="userSpaceOnUse"
       id="clipPath16">
      <path
         d="M 0,297 H 1166 V 0 H 0 Z"
         transform="translate(-1026.7197,-155.87541)"
         id="path16" />
    </clipPath>
    <clipPath
       clipPathUnits="userSpaceOnUse"
       id="clipPath18">
      <path
         d="M 0,297 H 1166 V 0 H 0 Z"
         transform="translate(-418.09301,-72.930399)"
         id="path18" />
    </clipPath>
    <clipPath
       clipPathUnits="userSpaceOnUse"
       id="clipPath20">
      <path
         d="M 0,297 H 1166 V 0 H 0 Z"
         transform="translate(-456.80551,-72.420902)"
         id="path20" />
    </clipPath>
    <clipPath
       clipPathUnits="userSpaceOnUse"
       id="clipPath22">
      <path
         d="M 0,297 H 1166 V 0 H 0 Z"
         transform="translate(-687.21371,-111.13401)"
         id="path22" />
    </clipPath>
    <clipPath
       clipPathUnits="userSpaceOnUse"
       id="clipPath24">
      <path
         d="M 0,297 H 1166 V 0 H 0 Z"
         transform="translate(-691.12102,-30.653101)"
         id="path24" />
    </clipPath>
    <clipPath
       clipPathUnits="userSpaceOnUse"
       id="clipPath26">
      <path
         d="M 0,297 H 1166 V 0 H 0 Z"
         transform="translate(-922.0363,-111.13401)"
         id="path26" />
    </clipPath>
    <clipPath
       clipPathUnits="userSpaceOnUse"
       id="clipPath28">
      <path
         d="M 0,297 H 1166 V 0 H 0 Z"
         id="path28" />
    </clipPath>
    <clipPath
       clipPathUnits="userSpaceOnUse"
       id="clipPath30">
      <path
         d="M 0,297 H 1166 V 0 H 0 Z"
         transform="translate(-1034.2681,-111.98271)"
         id="path30" />
    </clipPath>
    <clipPath
       clipPathUnits="userSpaceOnUse"
       id="clipPath32">
      <path
         d="M 0,297 H 1166 V 0 H 0 Z"
         transform="translate(-1061.434,-72.420902)"
         id="path32" />
    </clipPath>
    <linearGradient
       x1="0"
       y1="0"
       x2="1"
       y2="0"
       gradientUnits="userSpaceOnUse"
       gradientTransform="matrix(275.03598,0,0,-275.03598,28.362884,101.27429)"
       spreadMethod="pad"
       id="linearGradient34">
      <stop
         style="stop-opacity:1;stop-color:#eb2187"
         offset="0"
         id="stop32" />
      <stop
         style="stop-opacity:1;stop-color:#eb2187"
         offset="0.7599322"
         id="stop33" />
      <stop
         style="stop-opacity:1;stop-color:#7a2b70"
         offset="1"
         id="stop34" />
    </linearGradient>
    <clipPath
       clipPathUnits="userSpaceOnUse"
       id="clipPath36">
      <path
         d="M 0,297 H 1166 V 0 H 0 Z"
         transform="translate(-232.39471,-20.890598)"
         id="path36" />
    </clipPath>
  </defs>
  <sodipodi:namedview
     id="namedview1"
     pagecolor="#ffffff"
     bordercolor="#000000"
     borderopacity="0.25"
     inkscape:showpageshadow="2"
     inkscape:pageopacity="0.0"
     inkscape:pagecheckerboard="0"
     inkscape:deskcolor="#d1d1d1">
    <inkscape:page
       x="0"
       y="0"
       inkscape:label="1"
       id="page1"
       width="1554.6667"
       height="396"
       margin="24.1544 41.626667 21.454666 37.8172"
       bleed="0" />
  </sodipodi:namedview>
  <g
     id="layer-MC0"
     inkscape:groupmode="layer"
     inkscape:label="Layer 1">
    <path
       id="path1"
       d="m 0,0 c 7.919,-3.462 16.48,-6.886 25.663,-10.139 7.912,-2.801 15.538,-5.21 22.812,-7.287 11.855,30.841 23.709,61.681 35.563,92.521 10.089,-27.646 20.177,-55.292 30.265,-82.938 8.135,1.507 17.556,3.828 27.767,7.464 9.21,3.279 17.221,6.972 23.979,10.549 -18.543,47.649 -37.086,95.297 -55.63,142.946 H 60.464 C 40.309,102.077 20.155,51.039 0,0"
       style="fill:#000850;fill-opacity:1;fill-rule:nonzero;stroke:none"
       transform="matrix(1.3333333,0,0,-1.3333333,109.49747,226.94827)"
       clip-path="url(#clipPath2)" />
    <path
       id="path3"
       d="m 0,0 c 6.917,-3.652 14.856,-7.375 23.785,-10.813 9.69,-3.73 18.755,-6.436 26.871,-8.422 -4.18,-12.002 -8.361,-24.005 -12.541,-36.007 l -60.059,0.561 C -14.629,-36.454 -7.315,-18.227 0,0"
       style="fill:#000850;fill-opacity:1;fill-rule:nonzero;stroke:none"
       transform="matrix(1.3333333,0,0,-1.3333333,80.920667,295.2384)"
       clip-path="url(#clipPath4)" />
    <path
       id="path5"
       d="M 0,0 -30.064,68.291 -60.128,0 Z M 6.969,-15.928 H -67.096 L -82.427,-50.77 h -20.507 l 63.115,139.369 h 19.71 L 43.205,-50.77 H 22.299 Z"
       style="fill:#000850;fill-opacity:1;fill-rule:nonzero;stroke:none"
       transform="matrix(1.3333333,0,0,-1.3333333,580.83053,141.71027)"
       clip-path="url(#clipPath6)" />
    <path
       id="path7"
       d="m 0,0 c 0,41.214 31.458,71.277 73.866,71.277 21.502,0 40.219,-7.367 52.96,-21.701 L 113.884,37.032 C 103.134,48.381 89.993,53.558 74.662,53.558 43.205,53.558 19.91,30.86 19.91,0 c 0,-30.86 23.295,-53.558 54.752,-53.558 15.331,0 28.472,5.376 39.222,16.725 l 12.942,-12.543 C 114.085,-63.712 95.368,-71.278 73.667,-71.278 31.458,-71.278 0,-41.214 0,0"
       style="fill:#000850;fill-opacity:1;fill-rule:nonzero;stroke:none"
       transform="matrix(1.3333333,0,0,-1.3333333,648.2524,116.49067)"
       clip-path="url(#clipPath8)" />
    <path
       id="path9"
       d="m 0,0 c 0,41.214 31.458,71.277 73.866,71.277 21.503,0 40.219,-7.367 52.96,-21.701 L 113.885,37.032 C 103.134,48.381 89.992,53.558 74.663,53.558 43.206,53.558 19.91,30.86 19.91,0 c 0,-30.86 23.296,-53.558 54.753,-53.558 15.329,0 28.471,5.376 39.222,16.725 l 12.941,-12.543 C 114.085,-63.712 95.369,-71.278 73.668,-71.278 31.458,-71.278 0,-41.214 0,0"
       style="fill:#000850;fill-opacity:1;fill-rule:nonzero;stroke:none"
       transform="matrix(1.3333333,0,0,-1.3333333,836.1932,116.49067)"
       clip-path="url(#clipPath10)" />
    <path
       id="path11"
       d="m 0,0 v -17.322 h -101.141 v 139.37 H -2.786 V 104.726 H -81.231 V 61.919 h 69.884 V 44.996 H -81.231 V 0 Z"
       style="fill:#000850;fill-opacity:1;fill-rule:nonzero;stroke:none"
       transform="matrix(1.3333333,0,0,-1.3333333,1178.1041,186.30787)"
       clip-path="url(#clipPath12)" />
    <path
       id="path13"
       d="M 0,0 7.367,15.53 C 17.721,6.172 35.44,-0.597 53.359,-0.597 c 24.09,0 34.444,9.357 34.444,21.502 0,34.046 -84.418,12.543 -84.418,64.309 0,21.503 16.724,39.82 53.359,39.82 16.325,0 33.248,-4.38 44.796,-12.344 L 94.97,96.762 c -12.144,7.765 -25.883,11.348 -38.226,11.348 -23.694,0 -33.847,-9.955 -33.847,-22.1 0,-34.046 84.418,-12.742 84.418,-63.91 0,-21.304 -17.122,-39.621 -53.956,-39.621 C 32.055,-17.521 11.149,-10.353 0,0"
       style="fill:#000850;fill-opacity:1;fill-rule:nonzero;stroke:none"
       transform="matrix(1.3333333,0,0,-1.3333333,1204.1145,188.16613)"
       clip-path="url(#clipPath14)" />
    <path
       id="path15"
       d="M 0,0 7.367,15.53 C 17.721,6.172 35.44,-0.597 53.359,-0.597 c 24.09,0 34.444,9.357 34.444,21.502 0,34.046 -84.418,12.543 -84.418,64.309 0,21.503 16.724,39.82 53.359,39.82 16.325,0 33.248,-4.38 44.796,-12.344 L 94.97,96.762 c -12.144,7.765 -25.883,11.348 -38.226,11.348 -23.694,0 -33.847,-9.955 -33.847,-22.1 0,-34.046 84.418,-12.742 84.418,-63.91 0,-21.304 -17.122,-39.621 -53.956,-39.621 C 32.055,-17.521 11.149,-10.353 0,0"
       style="fill:#000850;fill-opacity:1;fill-rule:nonzero;stroke:none"
       transform="matrix(1.3333333,0,0,-1.3333333,1368.9596,188.16613)"
       clip-path="url(#clipPath16)" />
    <path
       id="path17"
       d="m 0,0 v -51.786 h -16.3 v 49.918 c 0,17.659 -8.829,26.318 -24.28,26.318 -17.318,0 -28.524,-10.357 -28.524,-29.883 v -46.353 h -16.3 v 89.99 h 15.62 V 24.62 c 6.622,9.169 18.168,14.432 32.43,14.432 C -15.451,39.052 0,26.487 0,0"
       style="fill:#000850;fill-opacity:1;fill-rule:nonzero;stroke:none"
       transform="matrix(1.3333333,0,0,-1.3333333,557.45733,298.75947)"
       clip-path="url(#clipPath18)" />
    <path
       id="path19"
       d="M 0,0 H 57.728 C 56.031,15.111 44.655,25.809 28.864,25.809 13.244,25.809 1.698,15.281 0,0 M 73.01,-11.715 H 0 c 2.037,-15.79 14.772,-26.318 32.6,-26.318 10.526,0 19.356,3.566 25.978,10.867 l 8.999,-10.527 c -8.151,-9.509 -20.545,-14.602 -35.487,-14.602 -29.034,0 -48.39,19.187 -48.39,46.013 0,26.657 19.187,45.844 45.164,45.844 25.978,0 44.485,-18.678 44.485,-46.353 0,-1.358 -0.17,-3.396 -0.339,-4.924"
       style="fill:#000850;fill-opacity:1;fill-rule:nonzero;stroke:none"
       transform="matrix(1.3333333,0,0,-1.3333333,609.074,299.4388)"
       clip-path="url(#clipPath20)" />
    <path
       id="path21"
       d="m 0,0 -33.619,-89.989 h -15.62 l -25.978,68.256 -26.317,-68.256 h -15.622 L -150.604,0 h 15.451 L -109.005,-71.652 -81.839,0 h 13.753 L -41.428,-71.991 -14.602,0 Z"
       style="fill:#000850;fill-opacity:1;fill-rule:nonzero;stroke:none"
       transform="matrix(1.3333333,0,0,-1.3333333,916.28493,247.82133)"
       clip-path="url(#clipPath22)" />
    <path
       id="path23"
       d="m 0,0 6.792,12.904 c 7.641,-5.433 19.865,-9.339 31.581,-9.339 15.111,0 21.394,4.585 21.394,12.225 0,20.206 -56.88,2.717 -56.88,38.543 0,16.13 14.432,26.997 37.524,26.997 11.715,0 24.959,-3.057 32.768,-8.151 L 66.218,60.275 c -8.15,5.264 -17.148,7.131 -25.978,7.131 -14.262,0 -21.223,-5.263 -21.223,-12.395 0,-21.223 57.049,-3.904 57.049,-38.881 0,-16.3 -14.941,-26.657 -38.881,-26.657 C 22.243,-10.527 7.472,-5.943 0,0"
       style="fill:#000850;fill-opacity:1;fill-rule:nonzero;stroke:none"
       transform="matrix(1.3333333,0,0,-1.3333333,921.49467,355.1292)"
       clip-path="url(#clipPath24)" />
    <path
       id="path25"
       d="m 0,0 -33.619,-89.989 h -15.62 l -25.978,68.256 -26.317,-68.256 h -15.621 L -150.604,0 h 15.451 L -109.005,-71.652 -81.839,0 h 13.753 L -41.428,-71.991 -14.602,0 Z"
       style="fill:#000850;fill-opacity:1;fill-rule:nonzero;stroke:none"
       transform="matrix(1.3333333,0,0,-1.3333333,1229.3817,247.82133)"
       clip-path="url(#clipPath26)" />
    <path
       id="path27"
       d="m 938.507,111.134 h 16.3 V 21.145 h -16.3 z"
       style="fill:#000850;fill-opacity:1;fill-rule:nonzero;stroke:none"
       transform="matrix(1.3333333,0,0,-1.3333333,0,396)"
       clip-path="url(#clipPath28)" />
    <path
       id="path29"
       d="m 0,0 v -15.791 c -1.358,0.17 -2.547,0.17 -3.735,0.17 -17.489,0 -28.355,-10.697 -28.355,-30.392 V -90.838 H -48.391 V -0.849 H -32.77 V -15.96 C -26.997,-5.434 -15.791,0 0,0"
       style="fill:#000850;fill-opacity:1;fill-rule:nonzero;stroke:none"
       transform="matrix(1.3333333,0,0,-1.3333333,1379.0241,246.68973)"
       clip-path="url(#clipPath30)" />
    <path
       id="path31"
       d="M 0,0 H 57.729 C 56.031,15.111 44.655,25.809 28.864,25.809 13.244,25.809 1.698,15.281 0,0 M 73.01,-11.715 H 0 c 2.038,-15.79 14.772,-26.318 32.6,-26.318 10.527,0 19.356,3.566 25.978,10.867 l 8.998,-10.527 c -8.149,-9.509 -20.544,-14.602 -35.486,-14.602 -29.033,0 -48.389,19.187 -48.389,46.013 0,26.657 19.185,45.844 45.163,45.844 25.978,0 44.485,-18.678 44.485,-46.353 0,-1.358 -0.169,-3.396 -0.339,-4.924"
       style="fill:#000850;fill-opacity:1;fill-rule:nonzero;stroke:none"
       transform="matrix(1.3333333,0,0,-1.3333333,1415.2453,299.4388)"
       clip-path="url(#clipPath32)" />
    <path
       id="path34"
       d="m 166.661,108.089 c -55.914,-0.032 -94.176,26.997 -105.743,35.866 v 0 L 28.363,105.787 C 41.778,94.924 93.137,55.98 168.902,57.515 v 0 c 72.509,1.469 120.825,39.069 134.497,50.517 v 0 c -9.916,12.348 -19.832,24.697 -29.749,37.045 v 0 c -11.358,-8.9 -50.069,-36.955 -106.989,-36.988"
       transform="matrix(1.3333333,0,0,-1.3333333,0,396)"
       style="fill:url(#linearGradient34);stroke:none" />
    <path
       id="path35"
       d="m 0,0 -12.944,35.955 c 7.491,2.03 15.756,4.695 24.541,8.226 9.757,3.922 18.335,8.181 25.701,12.316 7.774,-19.02 15.548,-38.039 23.322,-57.058 z"
       style="fill:#000850;fill-opacity:1;fill-rule:nonzero;stroke:none"
       transform="matrix(1.3333333,0,0,-1.3333333,309.8596,368.14587)"
       clip-path="url(#clipPath36)" />
  </g>
</svg>
