<svg width="184" height="34" viewBox="0 0 184 34" fill="none" xmlns="http://www.w3.org/2000/svg">
<g clip-path="url(#clip0_686_4312)">
<path d="M12.5939 9.33887L12.22 12.2827H8.2248V25.5301H4.3931V12.2827H0.210938V9.33887H12.5939ZM23.0608 25.5301V18.591H18.2011V25.5301H14.3694V9.33887H18.2011V15.6004H23.0608V9.33887H26.8925V25.5301H23.0608ZM40.0928 9.33887L39.6956 12.0725H33.9949V15.9509H38.9714V18.6378H33.9949V22.7732H40.0929V25.5301H30.1632V9.33887H40.0928Z" fill="black"/>
<path d="M83.9431 10.9274L82.0039 12.9601C81.4276 12.5242 80.8941 12.2088 80.4035 12.0138C79.9127 11.8192 79.3481 11.7218 78.7096 11.7218C77.51 11.7218 76.5521 12.193 75.8358 13.1353C75.1192 14.0779 74.761 15.5068 74.761 17.4226C74.761 19.4943 75.0334 20.9623 75.5788 21.8267C76.1237 22.6912 76.9726 23.1234 78.1254 23.1234C78.9352 23.1234 79.6675 22.9445 80.3216 22.5861V18.9179H78.2188L77.845 16.2077H84.0365V24.2215C83.1953 24.7669 82.2685 25.1875 81.2561 25.4831C80.2435 25.7789 79.2312 25.9271 78.2188 25.9271C75.7576 25.9271 73.9041 25.2067 72.6582 23.7659C71.4119 22.3253 70.7891 20.2109 70.7891 17.4225C70.7891 15.6469 71.1279 14.1205 71.8055 12.8432C72.483 11.5662 73.4095 10.5966 74.5857 9.93438C75.7616 9.27244 77.0817 8.94145 78.5459 8.94141C80.6331 8.94147 82.4322 9.60368 83.9431 10.9274ZM95.368 25.5299L94.5268 22.0487H89.8073L88.9896 25.5299H85.0177L89.9007 9.33866H94.5501L99.4332 25.5299H95.368ZM90.4615 19.2684H93.8727L92.1671 12.119L90.4615 19.2684ZM116.933 25.5299H113.171L112.891 19.1983C112.813 17.6877 112.774 16.3402 112.774 15.1563C112.774 14.2531 112.797 13.3964 112.844 12.5863L110.344 23.8244H106.723L104.059 12.5863C104.153 13.9414 104.199 15.2187 104.199 16.418C104.199 17.3214 104.176 18.2638 104.129 19.245L103.849 25.5299H100.111L101.326 9.33866H106.162L108.592 20.3198L110.858 9.33866H115.718L116.933 25.5299ZM130.706 18.1469C131.383 18.7391 131.722 19.6269 131.722 20.8104C131.722 22.5394 131.103 23.7582 129.865 24.4669C128.626 25.1758 126.893 25.5299 124.666 25.5299H119.456V9.33866H124.035C126.309 9.33866 128.046 9.66209 129.246 10.3083C130.445 10.9549 131.045 12.0101 131.045 13.4741C131.045 14.4243 130.76 15.1914 130.192 15.7755C129.623 16.3596 128.919 16.7531 128.077 16.9553C129.152 17.1579 130.028 17.5551 130.706 18.1469ZM123.288 12.0489V15.8105H124.713C126.333 15.8105 127.143 15.1563 127.143 13.8479C127.143 13.1937 126.924 12.7305 126.489 12.4578C126.052 12.1854 125.359 12.0489 124.409 12.0489H123.288ZM126.991 22.294C127.513 21.9903 127.774 21.4259 127.774 20.6001C127.774 19.1048 126.839 18.3572 124.97 18.3572H123.288V22.7496H124.69C125.702 22.7496 126.469 22.5977 126.991 22.294ZM137.937 9.33866V22.4926H144.245L143.848 25.5299H134.105V9.33866H137.937ZM156.254 9.33866L155.857 12.0723H150.156V15.9507H155.132V18.6375H150.156V22.773H156.254V25.5299H146.324V9.33866H156.254ZM166.989 9.45548C167.885 9.7982 168.699 10.32 169.431 11.0209L167.655 13.1003C166.549 12.1972 165.366 11.7452 164.104 11.7452C163.434 11.7452 162.904 11.8817 162.515 12.154C162.126 12.4267 161.931 12.8199 161.931 13.3339C161.931 13.6924 162.016 13.9845 162.188 14.2101C162.359 14.436 162.663 14.6504 163.099 14.8526C163.535 15.0551 164.189 15.2965 165.062 15.5769C166.713 16.1065 167.927 16.7568 168.707 17.5278C169.485 18.2988 169.875 19.3932 169.875 20.8104C169.875 21.8231 169.618 22.7146 169.104 23.4856C168.59 24.2566 167.85 24.8563 166.884 25.2846C165.918 25.7129 164.773 25.9271 163.45 25.9271C162.126 25.9271 160.953 25.7168 159.933 25.2963C158.913 24.8757 158.037 24.315 157.305 23.6141L159.244 21.488C159.867 22.0176 160.509 22.4148 161.172 22.6795C161.834 22.9446 162.554 23.0767 163.333 23.0767C164.127 23.0767 164.754 22.9015 165.214 22.551C165.673 22.2006 165.903 21.7139 165.903 21.0908C165.903 20.6859 165.817 20.3471 165.646 20.0744C165.474 19.8021 165.179 19.5568 164.758 19.3385C164.337 19.1205 163.73 18.8869 162.936 18.6375C161.144 18.0924 159.871 17.4227 159.116 16.6282C158.36 15.8339 157.982 14.8292 157.982 13.6143C157.982 12.6797 158.231 11.8583 158.73 11.1494C159.228 10.4408 159.922 9.89568 160.809 9.51389C161.697 9.13232 162.702 8.94152 163.823 8.94147C165.038 8.94147 166.093 9.11303 166.989 9.45548ZM182.795 9.33866L182.421 12.2825H178.426V25.5299H174.594V12.2825H170.412V9.33866H182.795Z" fill="#EF484F"/>
<path fill-rule="evenodd" clip-rule="evenodd" d="M59.2329 9.92204C59.3167 9.91363 59.4003 9.90532 59.484 9.89821C59.5106 9.8893 59.5374 9.88169 59.5642 9.87328C59.5751 9.77044 59.6356 9.67422 59.7265 9.61113C59.861 9.51791 59.9993 9.42469 60.1062 9.30753L60.1084 9.30383C60.1199 9.24504 60.1367 9.1874 60.1585 9.1316C59.8838 8.93435 59.5894 8.76753 59.303 8.58789C59.2658 8.61883 59.2281 8.64927 59.1911 8.68041C59.1751 9.05861 59.1624 9.437 59.1562 9.8155C59.1824 9.85068 59.208 9.88619 59.2329 9.92204Z" fill="#EF484F" stroke="#EF484F" stroke-width="0.300395" stroke-miterlimit="6" stroke-linecap="round" stroke-linejoin="round"/>
<path d="M59.1423 8.14496L55.253 1.39353C55.0397 1.02331 54.7411 0.819424 54.4122 0.819424C54.0834 0.819424 53.7847 1.02334 53.5715 1.39353L49.6821 8.14492C49.2865 8.8317 49.2865 9.90759 49.6821 10.5943L51.4811 13.7173C51.5833 13.6615 51.6883 13.6225 51.7947 13.6006C51.8411 13.5412 51.8945 13.4874 51.9516 13.4377C51.9502 13.424 51.9489 13.4101 51.9479 13.3963C51.9105 13.3947 51.8731 13.3949 51.8358 13.3968L50.087 10.3611C49.7774 9.82369 49.7774 8.91563 50.087 8.37823L53.9763 1.62684C54.1009 1.4107 54.2597 1.28674 54.4122 1.28677C54.5647 1.28677 54.7236 1.4107 54.8481 1.62684L58.7374 8.37827C59.047 8.9157 59.047 9.82379 58.7374 10.3611L55.8288 15.41C55.8332 15.417 55.8373 15.4241 55.8415 15.4312C55.9852 15.4819 56.1136 15.5619 56.2216 15.6644L59.1423 10.5944C59.5379 9.90766 59.538 8.83177 59.1423 8.14496Z" fill="#EF484F"/>
<path d="M54.7928 10.0249C54.9129 9.81645 54.8413 9.35404 54.6328 8.99212C54.4243 8.6302 54.1579 8.50581 54.0378 8.7143C53.9177 8.92279 53.9893 9.38519 54.1978 9.74711C54.4063 10.109 54.6727 10.2334 54.7928 10.0249Z" fill="#EF484F"/>
<path d="M54.4218 10.8535C54.1569 10.8535 53.9151 10.6868 53.7407 10.3842C53.413 9.81529 53.413 8.92404 53.7407 8.35511C53.915 8.05245 54.1569 7.88574 54.4218 7.88574C54.6866 7.88574 54.9285 8.05245 55.1029 8.35511C55.4306 8.92397 55.4306 9.81522 55.1029 10.3842C54.9285 10.6868 54.6866 10.8535 54.4218 10.8535ZM54.4218 8.2195C54.2834 8.2195 54.1405 8.32967 54.0299 8.52173L54.0299 8.52173C53.7651 8.98134 53.7651 9.75792 54.0299 10.2176C54.1405 10.4096 54.2834 10.5197 54.4218 10.5198C54.5602 10.5198 54.703 10.4096 54.8137 10.2176C55.0784 9.75792 55.0784 8.98133 54.8137 8.52173C54.703 8.32967 54.5602 8.21953 54.4218 8.2195Z" fill="#EF484F"/>
<path d="M69.7182 9.41987C69.5539 9.13545 69.2288 8.97887 68.8024 8.97888L61.0091 8.98635C60.2165 8.98707 59.2848 9.525 58.8878 10.211L55.7425 15.6468C55.9068 15.6591 56.0579 15.7074 56.1911 15.7835C56.1948 15.7841 56.1986 15.7846 56.2022 15.7852L59.2923 10.445C59.6029 9.9082 60.3893 9.45421 61.0095 9.45365L68.8023 9.44618C69.051 9.44618 69.2373 9.52174 69.3135 9.65361C69.3898 9.78568 69.3618 9.98524 69.2369 10.2011L65.3347 16.945C65.024 17.4818 64.2377 17.9358 63.6174 17.9364L59.8287 17.9401C59.9313 18.0755 60.0051 18.2347 60.0421 18.4071L63.6179 18.4037C64.4104 18.403 65.3422 17.865 65.7391 17.179L69.6414 10.4352C69.8554 10.0653 69.8827 9.70476 69.7182 9.41987Z" fill="#EF484F"/>
<path d="M66.8479 10.7367C66.3816 10.9178 66.0165 11.2108 66.0325 11.391C66.0484 11.5713 66.4394 11.5705 66.9057 11.3894C67.372 11.2083 67.7371 10.9154 67.7211 10.7352C67.7052 10.5549 67.3142 10.5556 66.8479 10.7367Z" fill="#EF484F"/>
<path d="M66.3356 12.1593C65.987 12.1593 65.7223 12.0332 65.59 11.8042C65.4576 11.5748 65.481 11.282 65.6559 10.9797C65.9847 10.4114 66.7566 9.96582 67.4131 9.96516L67.4144 9.96515C67.7631 9.96515 68.0278 10.0912 68.1601 10.3204C68.2925 10.5497 68.2691 10.8425 68.0942 11.1448C67.7654 11.713 66.9936 12.1587 66.337 12.1593L66.3356 12.1593ZM66.3367 11.8255C66.8671 11.825 67.5397 11.4367 67.8053 10.9776C67.9163 10.7858 67.9403 10.607 67.8711 10.4872C67.802 10.3675 67.6355 10.2989 67.4144 10.2988L67.4134 10.2988C66.8831 10.2994 66.2104 10.6877 65.9448 11.1468C65.8338 11.3386 65.8098 11.5174 65.8791 11.6373C65.9482 11.7569 66.1146 11.8255 66.3356 11.8255L66.3367 11.8255Z" fill="#EF484F"/>
<path d="M60.7698 10.7426C60.3035 10.9237 59.9384 11.2166 59.9543 11.3969C59.9703 11.5771 60.3612 11.5764 60.8275 11.3953C61.2939 11.2142 61.659 10.9213 61.643 10.741C61.6271 10.5608 61.2361 10.5615 60.7698 10.7426Z" fill="#EF484F"/>
<path d="M60.2574 12.1652C59.9089 12.1652 59.6442 12.0391 59.5119 11.8101C59.3795 11.5806 59.4029 11.2879 59.5778 10.9856C59.9066 10.4173 60.6785 9.97168 61.335 9.97101L61.3363 9.97101C61.685 9.97101 61.9497 10.0971 62.082 10.3262C62.2144 10.5556 62.191 10.8484 62.0161 11.1506C61.6873 11.7189 60.9154 12.1645 60.2588 12.1652L60.2574 12.1652ZM61.3363 10.3047L61.3353 10.3047C60.8049 10.3053 60.1323 10.6936 59.8667 11.1527C59.7557 11.3445 59.7317 11.5233 59.801 11.6431C59.8701 11.7628 60.0364 11.8314 60.2575 11.8314L60.2585 11.8314C60.7889 11.8309 61.4615 11.4426 61.7272 10.9835C61.8381 10.7917 61.8621 10.6129 61.7929 10.4931C61.7239 10.3734 61.5574 10.3047 61.3363 10.3047Z" fill="#EF484F"/>
<path d="M58.2971 15.398C57.7809 15.3985 57.1678 15.714 56.8212 16.134C56.8731 16.1935 56.9185 16.2573 56.9571 16.3251C57.1396 16.3724 57.3007 16.4658 57.4314 16.592C57.6508 16.6438 57.8397 16.7629 57.9842 16.9244C58.0293 16.9467 58.0718 16.9714 58.1114 16.9984C58.4142 16.8289 58.6805 16.5915 58.8335 16.3271C59.1308 15.8134 58.8906 15.3974 58.2971 15.398Z" fill="#EF484F"/>
<path d="M59.0421 15.5859C58.9099 15.3568 58.6452 15.2307 58.2966 15.2307L58.2952 15.2307C57.7298 15.2313 57.0808 15.5624 56.7011 16.017C56.7875 16.0895 56.8624 16.1753 56.9241 16.271C57.2328 15.8764 57.8207 15.5649 58.2955 15.5645L58.2965 15.5645C58.5176 15.5645 58.684 15.633 58.753 15.7528C58.8223 15.8726 58.7983 16.0514 58.6873 16.2432C58.5386 16.5002 58.2623 16.7349 57.9549 16.8919C57.9653 16.9026 57.9748 16.9142 57.9848 16.9253C58.0821 16.9742 58.1706 17.0373 58.2484 17.1121C58.5525 16.9311 58.8168 16.6858 58.9762 16.4103C59.1512 16.108 59.1746 15.8153 59.0421 15.5859Z" fill="#EF484F"/>
<path d="M62.2854 13.3696C61.8191 13.5507 61.454 13.8436 61.47 14.0238C61.4859 14.2041 61.8769 14.2034 62.3432 14.0223C62.8095 13.8412 63.1746 13.5482 63.1586 13.368C63.1427 13.1877 62.7517 13.1884 62.2854 13.3696Z" fill="#EF484F"/>
<path d="M61.7731 14.7921C61.4245 14.7921 61.1598 14.6661 61.0275 14.437C60.8951 14.2076 60.9185 13.9148 61.0934 13.6125C61.4222 13.0442 62.1941 12.5986 62.8506 12.598L62.8521 12.598C63.2006 12.598 63.4653 12.7241 63.5976 12.9531C63.73 13.1825 63.7066 13.4753 63.5317 13.7776C63.2029 14.3459 62.431 14.7914 61.7745 14.7921L61.7731 14.7921ZM62.852 12.9318L62.851 12.9318C62.3205 12.9322 61.648 13.3206 61.3823 13.7797C61.2714 13.9715 61.2474 14.1502 61.3166 14.2701C61.3857 14.3898 61.552 14.4584 61.7731 14.4584L61.7742 14.4584C62.3046 14.4579 62.9772 14.0696 63.2428 13.6104C63.3538 13.4187 63.3778 13.2398 63.3086 13.12C63.2395 13.0003 63.0731 12.9317 62.852 12.9318Z" fill="#EF484F"/>
<path d="M63.8011 15.996C63.3347 16.1771 62.9696 16.4701 62.9856 16.6503C63.0015 16.8305 63.3925 16.8298 63.8588 16.6487C64.3251 16.4676 64.6902 16.1747 64.6743 15.9945C64.6583 15.8142 64.2674 15.8149 63.8011 15.996Z" fill="#EF484F"/>
<path d="M63.2889 17.4191C62.9402 17.4191 62.6754 17.2929 62.5431 17.0639C62.4107 16.8345 62.4342 16.5417 62.6091 16.2394C62.9379 15.6712 63.7097 15.2256 64.3663 15.2249L64.3677 15.2249C64.7163 15.2249 64.981 15.351 65.1133 15.5801C65.2457 15.8095 65.2223 16.1022 65.0474 16.4045C64.7186 16.9728 63.9467 17.4184 63.2901 17.4191L63.2889 17.4191ZM64.3677 15.5586L64.3667 15.5586C63.8362 15.5591 63.1636 15.9475 62.898 16.4065C62.787 16.5983 62.7631 16.7771 62.8323 16.897C62.9014 17.0166 63.0678 17.0853 63.289 17.0853L63.2899 17.0853C63.8203 17.0848 64.4929 16.6964 64.7585 16.2373C64.8695 16.0455 64.8935 15.8668 64.8243 15.7469C64.7552 15.6272 64.5888 15.5586 64.3677 15.5586Z" fill="#EF484F"/>
<path d="M68.5992 9.4372L60.806 9.42973C60.0134 9.42894 59.0817 8.89101 58.6848 8.20504L54.7825 1.46112C54.5685 1.09134 54.5412 0.730798 54.7057 0.445973C54.8701 0.161149 55.1977 0.00640448 55.6233 0.00485556L63.4148 0.0123182C64.2073 0.0131105 65.1391 0.551038 65.536 1.23701L69.4383 7.98093C69.6522 8.3507 69.6795 8.71125 69.5151 8.99608C69.3508 9.28057 69.0256 9.43721 68.5992 9.4372ZM55.6217 0.472119C55.3728 0.472113 55.1865 0.547706 55.1104 0.679579C55.0341 0.811651 55.062 1.0112 55.1869 1.22707L59.0892 7.97098C59.3998 8.50778 60.1862 8.96181 60.8065 8.9624L68.5991 8.96986C68.848 8.96987 69.0343 8.89428 69.1104 8.7624C69.1867 8.63033 69.1588 8.43078 69.0339 8.21492L65.1316 1.471C64.821 0.934201 64.0346 0.480177 63.4144 0.479583L55.6217 0.472119Z" fill="#EF484F"/>
<path d="M57.4955 2.65496C57.7642 2.75929 58.0044 2.59022 58.032 2.27734C58.0597 1.96445 57.8644 1.62624 57.5958 1.52191C57.3271 1.41758 57.0869 1.58665 57.0593 1.89953C57.0316 2.21242 57.2269 2.55063 57.4955 2.65496Z" fill="#EF484F"/>
<path d="M58.0864 3.1852L58.085 3.1852C57.4284 3.18457 56.6565 2.73895 56.3277 2.17066C56.1528 1.86837 56.1294 1.57557 56.2618 1.34623C56.3941 1.11715 56.6589 0.991063 57.0075 0.991065L57.0088 0.991066C57.6654 0.991728 58.4373 1.43735 58.7661 2.0056C58.941 2.30793 58.9644 2.60076 58.8319 2.8301C58.6997 3.05908 58.4349 3.18521 58.0864 3.1852ZM57.0074 1.32479C56.7863 1.32478 56.62 1.3934 56.5508 1.5131C56.4816 1.63298 56.5056 1.81171 56.6166 2.00351C56.8823 2.46264 57.5548 2.85093 58.0852 2.85144L58.0863 2.85144C58.3074 2.85146 58.4737 2.78287 58.5428 2.66316C58.612 2.54332 58.5881 2.36453 58.4771 2.17272C58.2114 1.71363 57.5389 1.32533 57.0084 1.32479L57.0074 1.32479Z" fill="#EF484F"/>
<path d="M60.5424 7.91473C60.811 8.01905 61.0512 7.84999 61.0789 7.5371C61.1066 7.22422 60.9113 6.886 60.6426 6.78167C60.374 6.67735 60.1338 6.84642 60.1061 7.1593C60.0785 7.47218 60.2738 7.8104 60.5424 7.91473Z" fill="#EF484F"/>
<path d="M61.1333 8.44497L61.1319 8.44497C60.4753 8.44434 59.7034 7.99872 59.3746 7.43043C59.1997 7.12814 59.1763 6.83534 59.3087 6.606C59.4411 6.37659 59.708 6.24967 60.0557 6.25084C60.7123 6.25146 61.4841 6.69709 61.813 7.26537C61.9879 7.5677 62.0113 7.8605 61.8788 8.08984C61.7466 8.31885 61.4818 8.44498 61.1333 8.44497ZM60.0544 6.58456C59.8332 6.58455 59.6668 6.65316 59.5978 6.77287C59.5286 6.89272 59.5525 7.07148 59.6635 7.26328C59.9292 7.72241 60.6018 8.1107 61.1322 8.11121L61.1332 8.11121C61.3543 8.11123 61.5207 8.04264 61.5897 7.92293C61.659 7.80309 61.635 7.6243 61.524 7.43249C61.2583 6.97336 60.5858 6.58507 60.0553 6.58456L60.0544 6.58456Z" fill="#EF484F"/>
<path d="M66.6205 7.92004C66.8892 8.02437 67.1294 7.85531 67.157 7.54244C67.1847 7.22958 66.9894 6.89137 66.7208 6.78705C66.4521 6.68272 66.2119 6.85177 66.1843 7.16464C66.1566 7.47751 66.3519 7.81571 66.6205 7.92004Z" fill="#EF484F"/>
<path d="M67.2036 8.45083L67.2022 8.45083C66.5456 8.4502 65.7738 8.00458 65.445 7.43629C65.27 7.134 65.2466 6.8412 65.379 6.61185C65.5113 6.38278 65.7761 6.25669 66.1247 6.25669L66.1261 6.25669C66.7826 6.25735 67.5545 6.70297 67.8833 7.27123C68.0582 7.57356 68.0816 7.86635 67.9491 8.0957C67.8169 8.32474 67.5521 8.45083 67.2036 8.45083ZM66.1247 6.59045C65.9036 6.59044 65.7372 6.65905 65.6681 6.77876C65.5989 6.89864 65.6229 7.07736 65.7339 7.26917C65.9995 7.7283 66.6721 8.11659 67.2025 8.1171L67.2036 8.1171C67.4247 8.11711 67.591 8.04853 67.6601 7.92882C67.7293 7.80898 67.7053 7.63019 67.5943 7.43838C67.3287 6.97928 66.6561 6.59099 66.1257 6.59045L66.1247 6.59045Z" fill="#EF484F"/>
<path d="M63.5737 2.66082C63.8423 2.76515 64.0825 2.59608 64.1102 2.28319C64.1378 1.97031 63.9425 1.63209 63.6739 1.52777C63.4053 1.42344 63.1651 1.59251 63.1374 1.90539C63.1097 2.21828 63.305 2.55649 63.5737 2.66082Z" fill="#EF484F"/>
<path d="M64.1645 3.19106L64.1631 3.19106C63.5065 3.19043 62.7347 2.74481 62.4059 2.17652C62.231 1.8742 62.2075 1.5814 62.34 1.35206C62.4722 1.12301 62.737 0.996922 63.0855 0.996924L63.087 0.996925C63.7435 0.997554 64.5154 1.44321 64.8442 2.01146C65.0191 2.31376 65.0425 2.60659 64.9101 2.83593C64.7778 3.06494 64.513 3.19106 64.1645 3.19106ZM63.0856 1.33065C62.8645 1.33064 62.6981 1.39922 62.629 1.51893C62.5598 1.63881 62.5838 1.81756 62.6948 2.00937C62.9605 2.4685 63.633 2.85679 64.1635 2.8573L64.1645 2.8573C64.3856 2.85731 64.5519 2.7887 64.621 2.66902C64.6903 2.54915 64.6663 2.37039 64.5553 2.17858C64.2896 1.71945 63.6171 1.33116 63.0866 1.33065L63.0856 1.33065Z" fill="#EF484F"/>
<path fill-rule="evenodd" clip-rule="evenodd" d="M56.217 0.148361C56.2359 0.148361 56.2545 0.149363 56.2733 0.149763C56.1226 0.11719 55.9688 0.100544 55.8145 0.100098C54.7118 0.100098 53.7806 0.906257 53.4766 2.01301C53.4842 2.0017 53.4926 1.99088 53.5003 1.97967C53.6199 1.78091 53.7646 1.59837 53.9309 1.43655C54.4187 0.671947 55.3053 0.148361 56.217 0.148361Z" fill="#EF484F" stroke="#EF484F" stroke-width="0.300395" stroke-miterlimit="6" stroke-linecap="round" stroke-linejoin="round"/>
<path fill-rule="evenodd" clip-rule="evenodd" d="M69.4947 8.76527C69.4951 8.88247 69.4736 8.99871 69.4314 9.10802C69.4316 9.11974 69.4326 9.13125 69.4327 9.14297C69.4331 9.19073 69.431 9.23799 69.428 9.28505C69.4338 9.29867 69.4388 9.31279 69.4441 9.32661C69.538 9.49981 69.5878 9.69344 69.5893 9.89045L69.5891 9.89455C69.5956 9.94372 69.6002 9.99328 69.6006 10.0439C69.6008 10.0736 69.599 10.1028 69.5963 10.132C69.6566 10.1227 69.7176 10.119 69.7786 10.1209C69.7828 10.1211 69.7868 10.1218 69.791 10.122C69.8365 9.94331 69.8629 9.76035 69.8697 9.57614C69.8934 8.9353 69.6843 8.34161 69.3203 7.87891C69.3367 7.98631 69.3471 8.09512 69.3517 8.20534C69.4442 8.37756 69.4933 8.56977 69.4947 8.76527Z" fill="#EF484F"/>
<path fill-rule="evenodd" clip-rule="evenodd" d="M60.1855 18.6168C60.4044 18.7202 60.6073 18.8517 60.7902 19.0066C60.8857 19.0573 60.9785 19.1134 61.0673 19.1755C60.9818 18.7162 60.5392 18.1722 60.0626 17.791C60.1187 17.9779 60.1581 18.1729 60.1774 18.3724C60.1854 18.4546 60.1875 18.536 60.1861 18.6168H60.1855ZM43.4361 18.3264C43.4134 18.1742 43.4081 18.0227 43.4168 17.8731C42.9722 18.3457 42.808 18.9652 42.7812 19.4525C43.0383 19.2683 43.324 19.1188 43.6264 19.0126C43.5362 18.795 43.4722 18.5654 43.4361 18.3264Z" fill="black"/>
<path fill-rule="evenodd" clip-rule="evenodd" d="M52.3366 23.5512C52.2926 23.4211 52.2579 23.2876 52.2325 23.1501C52.2218 23.1501 52.2118 23.1507 52.2011 23.1507C52.0075 23.1507 51.8206 23.13 51.6411 23.0913C51.5358 23.2442 51.4152 23.386 51.2812 23.5145C51.4268 23.7095 51.5476 23.9244 51.6397 24.1547C51.7485 24.1614 51.858 24.1681 51.9668 24.1754C52.0095 23.9311 52.1477 23.7121 52.3366 23.5519V23.5512Z" fill="black" stroke="white" stroke-width="0.200263" stroke-linecap="round" stroke-linejoin="round"/>
<path fill-rule="evenodd" clip-rule="evenodd" d="M52.5231 33.1904C52.3302 33.3393 52.0919 33.4307 51.8489 33.4307C51.7781 33.4307 51.71 33.4234 51.644 33.4107C51.5131 33.4668 51.3723 33.4988 51.2294 33.4988C51.2127 33.4988 51.196 33.4968 51.1793 33.4962C51.0984 33.5717 51.0151 33.6447 50.9297 33.7151C51.7902 34.0843 52.5325 33.8032 53.0625 33.4588C52.8742 33.3927 52.6953 33.3019 52.5238 33.1911L52.5231 33.1904Z" fill="black"/>
<path d="M43.9102 19.023C43.3008 18.6719 43.3008 18.0972 43.9102 17.7467L50.6618 13.8576C51.2712 13.5065 52.2685 13.5065 52.878 13.8576L59.6295 17.7467C60.239 18.0978 60.239 18.6726 59.6295 19.023L52.878 22.9121C52.2685 23.2633 51.2712 23.2633 50.6618 22.9121L43.9102 19.023Z" stroke="black" stroke-width="0.467281"/>
<path d="M51.4015 17.7815C50.728 18.185 50.3437 18.7821 50.5432 19.1152C50.7428 19.4484 51.4506 19.3914 52.1241 18.9879C52.7977 18.5844 53.182 17.9873 52.9824 17.6541C52.7829 17.321 52.0751 17.378 51.4015 17.7815Z" fill="black" stroke="black" stroke-width="0.333772"/>
<path d="M51.926 32.7708C51.9267 33.4744 51.4294 33.7614 50.8206 33.409L44.0764 29.5065C43.4676 29.154 42.9689 28.2909 42.9683 27.5873L42.9609 19.7957C42.9603 19.0921 43.4576 18.8051 44.0664 19.1576L50.8106 23.06C51.4194 23.4125 51.918 24.2756 51.9187 24.9792L51.926 32.7708Z" stroke="black" stroke-width="0.467281"/>
<path d="M49.0082 30.2521C48.7883 30.6476 49.0874 31.2336 49.6764 31.5611C50.2653 31.8887 50.921 31.8336 51.1409 31.4382C51.3608 31.0427 51.0617 30.4567 50.4727 30.1291C49.8838 29.8016 49.2281 29.8567 49.0082 30.2521Z" fill="black" stroke="black" stroke-width="0.333772"/>
<path d="M43.7426 21.132C43.5227 21.5274 43.8218 22.1135 44.4107 22.441C44.9996 22.7685 45.6553 22.7135 45.8752 22.3181C46.0952 21.9226 45.796 21.3365 45.2071 21.009C44.6182 20.6815 43.9625 20.7366 43.7426 21.132Z" fill="black" stroke="black" stroke-width="0.333772"/>
<path d="M59.7972 18.9514C60.406 18.5989 60.9033 18.8866 60.9026 19.5896L60.8953 27.3811C60.8946 28.0847 60.3959 28.9479 59.7871 29.3003L53.043 33.2028C52.4342 33.5552 51.9368 33.2675 51.9375 32.5646L51.9448 24.773C51.9455 24.0695 52.4442 23.2063 53.053 22.8539L59.7972 18.9514Z" stroke="black" stroke-width="0.467281"/>
<path d="M58.3434 21.5291C58.356 22.3141 58.681 22.9455 59.0693 22.9392C59.4576 22.933 59.7621 22.2915 59.7494 21.5064C59.7368 20.7214 59.4118 20.09 59.0235 20.0963C58.6353 20.1025 58.3307 20.744 58.3434 21.5291Z" fill="black" stroke="black" stroke-width="0.333772"/>
<path d="M53.0777 30.6487C53.0904 31.4338 53.4154 32.0651 53.8037 32.0589C54.1919 32.0526 54.4964 31.4111 54.4838 30.6261C54.4712 29.841 54.1462 29.2097 53.7579 29.2159C53.3696 29.2222 53.0651 29.8636 53.0777 30.6487Z" fill="black" stroke="black" stroke-width="0.333772"/>
<path d="M55.7106 26.0891C55.7232 26.8742 56.0482 27.5056 56.4365 27.4993C56.8247 27.4931 57.1293 26.8516 57.1166 26.0665C57.104 25.2814 56.779 24.6501 56.3907 24.6563C56.0024 24.6626 55.6979 25.3041 55.7106 26.0891Z" fill="black" stroke="black" stroke-width="0.333772"/>
</g>
<defs>
<clipPath id="clip0_686_4312">
<rect width="183.055" height="33.8893" fill="white"/>
</clipPath>
</defs>
</svg>
